<svg xmlns="http://www.w3.org/2000/svg" viewBox="0 0 376.14 391.29">
    <g id="Layer_2" data-name="Layer 2">
        <g id="Layer_1-2" data-name="Layer 1" style=" fill: #ff9100; ">
            <path d="M344.78,266c0,5.34-.09,9.83,0,14.31.13,5.36-1.58,10-5.76,13.31-38.59,30.45-77.12,61-119.56,86.09-5.05,3-10.46,5.36-15.76,7.9-10.69,5.11-21.32,4.72-32-.22-22.14-10.2-42.11-23.93-61.63-38.26-23.71-17.4-46.86-35.58-70.39-53.25-6.09-4.58-9.06-10.13-8.37-17.79.33-3.76.05-7.57.05-12.1-5.19,0-10,.08-14.78,0C6.71,265.8.09,259.54.12,249.78c.09-23.71-.73-47.5,1-71.11,3.84-53.19,26.41-97.74,66.4-133C102.26,15.1,143.23,0,189.63,0c85.36,0,162.26,61.19,181,144.42a223,223,0,0,1,5,40.06c.84,21.61.35,43.27.26,64.91,0,10.13-6.48,16.42-16.61,16.61C354.67,266.09,350,266,344.78,266ZM109.86,159.11l-1.28-.23c-9.73,19.44-19.51,38.87-29.1,58.39-.72,1.47-.45,3.73,0,5.44Q90.61,262.13,102,301.5a9.72,9.72,0,0,0,3.13,5.06c22.93,15.8,46,31.35,68.94,47.16,9.34,6.45,18.22,6.72,27.69.17,23.32-16.13,46.85-32,70.21-48.05a10,10,0,0,0,3.23-5c5.84-18.82,11.42-37.71,17.29-56.52,4.85-15.52,6.6-31,1.51-46.87-4.13-12.94-7.49-26.12-11.47-40.14-6.23,15.75-18.43,23.39-31.83,30.56-5.07-20.62-10-40.76-15.31-62.34-6.45,15.21-14.47,27.63-25,38.31s-22.86,19-37.92,23.83c1.52-20.43,3-40.09,4.45-59.74-19.45,27.72-37,56.41-67,76Z" />
            <path d="M104.8,231.26v12.25a9.88,9.88,0,1,0,19.76,0V231.26a9.88,9.88,0,1,0-19.76,0Z" />
            <path d="M252.36,231.26v12.25a9.88,9.88,0,0,0,19.76,0V231.26a9.88,9.88,0,0,0-19.76,0Z" />
            <path d="M200.47,294.25a15.91,15.91,0,0,1-24,0,9.88,9.88,0,0,0-14.9,13,35.66,35.66,0,0,0,53.8,0,9.88,9.88,0,1,0-14.89-13Z" />
        </g>
    </g>
</svg>