<svg xmlns="http://www.w3.org/2000/svg" viewBox="0 0 365.61 271.93"><defs><style>.cls-1{opacity:0.76;}.cls-2{fill:#efefff;}.cls-3{fill:#4a4193;}.cls-4{fill:#fff;}.cls-5{fill:#766cff;}.cls-6{fill:none;stroke:#fff;stroke-miterlimit:10;}.cls-7{fill:#4949ea;opacity:0.67;}.cls-8{fill:#f74e00;}.cls-9{fill:#e03f00;opacity:0.7;}.cls-10{fill:#312d7f;opacity:0.58;}.cls-11{fill:#06005a;}.cls-12{fill:#2f2e41;}.cls-13{fill:#ef1947;}.cls-14{fill:#3f3d56;}</style></defs><g id="Layer_2" data-name="Layer 2"><g id="OBJECTS"><g class="cls-1"><path class="cls-2" d="M206.32,263.46c-39.5-3.22-87.72-9.72-117.81-20.19-24.75-8.61-44.71-26.86-57.38-46.43S18.49,151.2,35.9,134.3c15-14.54,41.41-22.17,47.2-40.67,2.37-7.56.62-15.52.42-23.33-.66-26.64,18.78-52.91,47.76-64.55,18.26-7.33,41.65-8.55,57.77,1.64,10.19,6.43,16.25,16.49,26.29,23.08C228,38.76,245,40.41,260.42,44.21c16,3.92,31.4,10.69,42,21.36s15.55,25.63,10.19,38.68c-2.27,5.53-6.32,11.35-3.78,16.8,1.1,2.37,3.33,4.25,5.42,6.11,14,12.47,24.47,27.92,27.91,44.68a55.53,55.53,0,0,1-12.85,48.47c-8.4,9.37-20.17,16.32-32.46,22a233.73,233.73,0,0,1-90.49,21.11"/></g><rect class="cls-3" x="146.93" y="111.09" width="27.26" height="142.15" rx="3.44" transform="translate(-26.13 26.89) rotate(-8.86)"/><rect class="cls-4" x="155.03" y="233.55" width="27.26" height="1.29" transform="translate(-34.04 28.76) rotate(-8.86)"/><rect class="cls-4" x="153.05" y="220.82" width="27.26" height="1.29" transform="matrix(0.99, -0.15, 0.15, 0.99, -32.11, 28.3)"/><rect class="cls-4" x="140.98" y="143.34" width="27.26" height="1.29" transform="translate(-20.32 25.52) rotate(-8.86)"/><rect class="cls-4" x="138.99" y="130.62" width="27.26" height="1.29" transform="translate(-18.39 25.06) rotate(-8.86)"/><rect class="cls-5" x="63.39" y="107.17" width="37.55" height="142.15" rx="3.44"/><rect class="cls-4" x="63.39" y="230.25" width="37.55" height="1.29"/><rect class="cls-4" x="63.39" y="217.38" width="37.55" height="1.29"/><rect class="cls-4" x="63.39" y="138.96" width="37.55" height="1.29"/><rect class="cls-4" x="63.39" y="126.08" width="37.55" height="1.29"/><circle class="cls-6" cx="83.06" cy="181.38" r="12.72"/><polygon class="cls-7" points="100.94 110.61 89.61 248.45 89.61 249.32 98.38 249.32 100.22 247.99 100.87 246.56 100.94 110.61"/><rect class="cls-5" x="184.38" y="107.17" width="32.38" height="142.15" rx="3.44"/><rect class="cls-4" x="184.38" y="230.25" width="32.38" height="1.29"/><rect class="cls-4" x="184.38" y="217.38" width="32.38" height="1.29"/><rect class="cls-4" x="184.38" y="138.96" width="32.38" height="1.29"/><rect class="cls-4" x="184.38" y="126.08" width="32.38" height="1.29"/><circle class="cls-6" cx="201.34" cy="183.13" r="10.97" transform="translate(-70.52 196.01) rotate(-45)"/><polygon class="cls-7" points="216.76 110.61 205.44 248.45 205.44 249.32 214.21 249.32 216.04 247.99 216.7 246.56 216.76 110.61"/><rect class="cls-8" x="100.94" y="91.38" width="37.55" height="157.95" rx="3.44"/><rect class="cls-4" x="100.94" y="228.13" width="37.55" height="1.43"/><rect class="cls-4" x="100.94" y="213.83" width="37.55" height="1.43"/><rect class="cls-4" x="100.94" y="126.7" width="37.55" height="1.43"/><rect class="cls-4" x="100.94" y="112.39" width="37.55" height="1.43"/><ellipse class="cls-6" cx="120.61" cy="173.83" rx="12.72" ry="14.13"/><polygon class="cls-9" points="138.98 94.95 120.42 248.35 120.42 249.32 134.79 249.32 137.8 247.84 138.88 246.25 138.98 94.95"/><polygon class="cls-10" points="166.5 131.73 177.53 251.46 183.91 249.32 184.44 246.9 166.5 131.73"/><rect class="cls-8" x="226.1" y="94.85" width="26.23" height="157.95" rx="3.44" transform="translate(-22.75 36.66) rotate(-8.37)"/><rect class="cls-4" x="234.62" y="230.99" width="26.23" height="1.43" transform="translate(-31.08 38.52) rotate(-8.37)"/><rect class="cls-4" x="232.53" y="216.83" width="26.23" height="1.43" transform="translate(-29.04 38.06) rotate(-8.37)"/><rect class="cls-4" x="217.77" y="116.48" width="26.23" height="1.43" transform="translate(-14.6 34.85) rotate(-8.37)"/><polygon class="cls-9" points="243.25 111.16 251.14 249.32 264.19 251.1 243.25 111.16"/><rect class="cls-3" x="253.61" y="111.09" width="27.26" height="142.15" rx="3.44" transform="translate(-24.86 43.31) rotate(-8.86)"/><rect class="cls-4" x="261.72" y="233.55" width="27.26" height="1.29" transform="matrix(0.99, -0.15, 0.15, 0.99, -32.77, 45.18)"/><rect class="cls-4" x="259.74" y="220.82" width="27.26" height="1.29" transform="matrix(0.99, -0.15, 0.15, 0.99, -30.84, 44.72)"/><rect class="cls-4" x="247.67" y="143.34" width="27.26" height="1.29" transform="matrix(0.99, -0.15, 0.15, 0.99, -19.05, 41.94)"/><rect class="cls-4" x="245.68" y="130.62" width="27.26" height="1.29" transform="translate(-17.12 41.48) rotate(-8.86)"/><polygon class="cls-10" points="273.37 136.98 282.15 251.1 292.05 251.1 273.37 136.98"/><rect class="cls-5" x="283.54" y="137.65" width="27.26" height="115.44" rx="3.44" transform="translate(-26.53 48.08) rotate(-8.86)"/><rect class="cls-4" x="290.12" y="237.09" width="27.26" height="1.05" transform="translate(-32.96 49.59) rotate(-8.86)"/><rect class="cls-4" x="288.51" y="226.76" width="27.26" height="1.05" transform="translate(-31.39 49.22) rotate(-8.86)"/><rect class="cls-4" x="278.7" y="163.84" width="27.26" height="1.05" transform="translate(-21.82 46.96) rotate(-8.86)"/><rect class="cls-4" x="277.09" y="153.5" width="27.26" height="1.05" transform="translate(-20.25 46.59) rotate(-8.86)"/><polyline class="cls-7" points="275.34 143.83 305.07 251.1 292.05 251.1"/><path class="cls-11" d="M357,266.58H23.78A8.63,8.63,0,0,1,15.15,258h0a8.63,8.63,0,0,1,8.63-8.63H357a8.63,8.63,0,0,1,8.63,8.63h0A8.63,8.63,0,0,1,357,266.58Z"/><ellipse class="cls-12" cx="49.25" cy="218.78" rx="10.92" ry="3.46" transform="translate(-150.88 117.59) rotate(-50.49)"/><circle class="cls-12" cx="30.18" cy="240.63" r="21.9"/><rect class="cls-12" x="20.22" y="257.8" width="6.66" height="11.89"/><rect class="cls-12" x="33.48" y="257.8" width="6.66" height="11.89"/><ellipse class="cls-12" cx="25.76" cy="269.84" rx="5.54" ry="2.08"/><ellipse class="cls-12" cx="39.02" cy="269.54" rx="5.54" ry="2.08"/><path class="cls-13" d="M22.51,228.94c6.91-5.69,10.72-10.93,5.59-17.18s-14.94-6.7-21.85-1S-2,226.14,3.1,232.39,15.6,234.63,22.51,228.94Z"/><circle class="cls-4" cx="37.75" cy="229.24" r="7.47"/><circle class="cls-14" cx="40.39" cy="227.41" r="2.49"/><path class="cls-4" d="M49,235.39c1.53,1.53,2.59,6.4.46,8.54s-8.38-.15-9.91-1.63,2.29-1.73,4.42-3.81S47.56,233.92,49,235.39Z"/><ellipse class="cls-12" cx="13.32" cy="259.62" rx="10.92" ry="3.46" transform="translate(-233.95 179.38) rotate(-69.08)"/><circle class="cls-12" cx="348.41" cy="227.04" r="17.2"/><rect class="cls-12" x="351" y="240.53" width="5.23" height="9.34"/><rect class="cls-12" x="340.59" y="240.53" width="5.23" height="9.34"/><ellipse class="cls-12" cx="351.88" cy="249.98" rx="4.35" ry="1.64"/><ellipse class="cls-12" cx="341.47" cy="249.75" rx="4.35" ry="1.64"/><circle class="cls-4" cx="347.97" cy="222.65" r="5.87"/><circle class="cls-14" cx="345.97" cy="221.85" r="1.96"/><path class="cls-13" d="M365.09,211c1.4-6.23-3-12.5-9.9-14s-13.53,2.27-14.92,8.46,3.15,8.5,10,10S363.69,217.26,365.09,211Z"/><ellipse class="cls-12" cx="196.9" cy="79.45" rx="20.71" ry="20.41"/><rect class="cls-12" x="187.44" y="95.45" width="6.29" height="11.08"/><rect class="cls-12" x="200.03" y="95.45" width="6.29" height="11.08"/><ellipse class="cls-12" cx="192.68" cy="106.67" rx="5.24" ry="1.94"/><ellipse class="cls-12" cx="205.26" cy="106.43" rx="5.24" ry="1.94"/><ellipse class="cls-4" cx="197.43" cy="74.29" rx="7.06" ry="6.96"/><ellipse class="cls-14" cx="194.43" cy="75.78" rx="2.35" ry="1.82"/><path class="cls-13" d="M176.82,60.46c-1.68-7.38,3.65-14.82,11.92-16.62s16.28,2.7,18,10-3.79,10.08-12,11.93S178.5,67.85,176.82,60.46Z"/></g></g></svg>