<?xml version="1.0" encoding="utf-8"?>
<!-- Generator: Adobe Illustrator 25.3.1, SVG Export Plug-In . SVG Version: 6.00 Build 0)  -->
<svg version="1.1" id="b3c5850d-3d23-4aad-a12c-b5e8440d4fde"
	 xmlns="http://www.w3.org/2000/svg" xmlns:xlink="http://www.w3.org/1999/xlink" x="0px" y="0px" viewBox="0 0 924 458.1"
	 style="enable-background:new 0 0 924 458.1;" xml:space="preserve">
<style type="text/css">
	.st0{fill:#2F2E41;}
	.st1{fill:#FFFFFF;}
	.st2{fill:#3F3D56;}
	.st3{fill:#EF1947;}
	.st4{opacity:0.15;enable-background:new    ;}
	.st5{opacity:0.4;fill:#3F3D56;enable-background:new    ;}
</style>
<ellipse transform="matrix(0.357 -0.9341 0.9341 0.357 -140.3255 523.6519)" class="st0" cx="310.2" cy="363.8" rx="21.5" ry="6.8"/>
<ellipse class="st0" cx="270.4" cy="396.3" rx="43.1" ry="43.1"/>
<rect x="250.7" y="430.1" class="st0" width="13.1" height="23.4"/>
<rect x="276.9" y="430.1" class="st0" width="13.1" height="23.4"/>
<ellipse class="st0" cx="261.6" cy="453.8" rx="10.9" ry="4.1"/>
<ellipse class="st0" cx="287.8" cy="453.3" rx="10.9" ry="4.1"/>
<ellipse class="st1" cx="271.5" cy="385.4" rx="14.7" ry="14.7"/>
<circle class="st2" cx="271.5" cy="385.4" r="4.9"/>
<path class="st3" d="M228.6,356.2c-3.5-15.6,7.6-31.3,24.8-35.1s33.9,5.7,37.4,21.2s-7.9,21.3-25.1,25.2S232.1,371.8,228.6,356.2z"
	/>
<ellipse transform="matrix(0.4285 -0.9035 0.9035 0.4285 -213.1924 415.4791)" class="st0" cx="221.8" cy="376.3" rx="6.8" ry="21.5"/>
<path class="st1" d="M249.2,411.8c0,4.2,10.9,12.5,22.9,12.5s23.3-11.9,23.3-16.1s-11.3,0.8-23.3,0.8S249.2,407.6,249.2,411.8z"/>
<path class="st3" d="M573.3,279.3l-46.8,46.2L420.8,429.8l-2.1,2.1l-11.9,11.8l-25-24.7l-2.2-2.2l-45.7-45.1l0,0l-14.6-14.5
	l-8.6-8.5l-25.8-25.4l-3.5-3.4l-41.1-40.6c-8.2-8.2-15.1-17.5-20.5-27.6c-0.5-0.9-1-1.8-1.4-2.8c-29.1-58-5.7-128.6,52.4-157.7
	c22.4-11.2,47.7-15,72.4-10.8l0,0c0.4,0.1,0.8,0.1,1.1,0.2c4,0.7,8,1.6,11.9,2.8c10.3,3,20,7.3,29.1,12.9c1,0.6,1.9,1.2,2.8,1.8
	c6.6,4.4,12.8,9.4,18.5,15.1l0.4-0.4l0.4,0.4c3.4-3.4,7-6.6,10.8-9.6c0.8-0.6,1.7-1.3,2.5-1.9c26-19.2,58.7-26.8,90.5-21.1
	c4,0.7,8,1.6,11.9,2.8c1.3,0.4,2.6,0.8,3.9,1.2c1,0.3,2.1,0.7,3.1,1.1c8.6,3.1,16.8,7.1,24.4,12.1c1.7,1.1,3.3,2.2,4.9,3.4
	c52.5,38.2,64.1,111.7,26,164.2C581.6,270.2,577.6,274.9,573.3,279.3z"/>
<path class="st4" d="M526.5,325.4L420.8,429.8l-2.1,2.1l-11.9,11.8l-25-24.7l-2.2-2.2l-45.7-45.1c7.3-1.7,18.6,0.6,22.8,2.7
	c9.8,4.8,17.8,12.8,27.8,17.3c8.9,4,18.8,5.1,28.3,3.1c17.8-3.7,31.6-17.5,43.8-31.1c12.2-13.6,24.6-28.1,41.7-34.4
	C507.1,325.9,516.8,325.2,526.5,325.4z"/>
<path class="st5" d="M603.3,115c-14.5-14.6-32.7-25.1-52.5-30.5c-1.3-0.4-2.6-0.7-4-1c-5.7-1.4-11.5-2.3-17.4-2.8
	c-1-0.1-2-0.2-3.1-0.2c-5.1-0.3-10.3-0.3-15.4,0.1c-28.1,1.9-54.7,13.7-74.8,33.5l-0.4-0.4l-0.4,0.4c-13.2-12.9-29.2-22.5-46.7-28.1
	c-1-0.3-2-0.6-3-0.9c-13.5-3.9-27.6-5.4-41.6-4.5c-0.4,0-0.8,0-1.2,0.1c-25.7,2-50.1,12.3-69.4,29.4c-1.8,1.6-3.6,3.3-5.4,5
	c-33.4,33.5-43.9,83.5-26.6,127.6c0.4,0.9,0.7,1.9,1.1,2.8c6,14.2,14.6,27.1,25.5,38l38.9,38.4l3.1,3l84.2,83.1l2.2,2.2l22.1,21.8
	l17.1,16.9l167.6-165.5C649.7,236.8,649.7,161.5,603.3,115z M601.2,281.1L435.8,444.5l-14.9-14.8l-21.6-21.4l-2.2-2.1l-82.6-81.5
	l-3-3l-41.1-40.6c-10.6-10.5-19-23-24.8-36.7c-0.4-0.9-0.8-1.9-1.1-2.8c-16.9-43-6.7-91.9,25.9-124.5c1.9-1.9,3.8-3.6,5.7-5.3l0,0
	c18.6-16.3,41.9-26.1,66.5-28.2c3.3-0.3,6.5-0.4,9.8-0.4c1.2,0,2.5,0,3.7,0.1c10,0.3,20,1.9,29.6,4.8c1,0.3,2,0.6,3,0.9
	c10.4,3.4,20.3,8.3,29.3,14.5c5.9,4,11.4,8.6,16.4,13.6l1.1,1.1l0.3-0.4l0.4,0.4l1.1-1.1C459.9,94.4,491,82.2,523,83.2
	c1.3,0,2.5,0.1,3.8,0.2c1,0.1,2,0.1,3.1,0.2c6.4,0.6,12.8,1.7,19.1,3.4c1.3,0.3,2.7,0.7,4,1.1c61.3,18.5,96,83.3,77.4,144.6
	C624.7,251,614.7,267.6,601.2,281.1z"/>
<path class="st4" d="M368.9,87.8c-6.4,5.1-13.3,9.8-17.5,16.7c-3.1,5.1-4.4,11.1-5.4,17c-1.9,11.4-2.7,23.2-6.5,34.1
	c-3.8,11-11.1,21.5-21.9,25.5c-6.7,2.5-14.1,2.4-21.3,1.9c-17.7-1.2-35.5-4.4-51.4-12.2c-8.9-4.4-17.5-10.2-27.4-10.9
	c-2-0.1-4,0-6,0.3c17.8-55.7,73.9-89.8,131.6-80l0,0c0.4,0.1,0.8,0.1,1.1,0.2c4,0.7,8,1.6,11.9,2.8C360.4,84.5,364.7,86,368.9,87.8z
	"/>
<circle class="st0" cx="300.1" cy="76.1" r="43.1"/>
<rect x="280.5" y="109.9" class="st0" width="13.1" height="23.4"/>
<rect x="306.6" y="109.9" class="st0" width="13.1" height="23.4"/>
<ellipse class="st0" cx="291.4" cy="133.6" rx="10.9" ry="4.1"/>
<ellipse class="st0" cx="317.5" cy="133" rx="10.9" ry="4.1"/>
<circle class="st1" cx="301.2" cy="65.1" r="14.7"/>
<ellipse class="st2" cx="306.2" cy="68.1" rx="4.9" ry="4.9"/>
<path class="st3" d="M258.3,36c-3.5-15.6,7.6-31.3,24.8-35.1s33.9,5.7,37.4,21.2s-7.9,21.3-25.1,25.2S261.8,51.6,258.3,36z"/>
<ellipse transform="matrix(0.7715 -0.6362 0.6362 0.7715 -93.6817 445.0023)" class="st0" cx="572.7" cy="352.9" rx="6.8" ry="21.5"/>
<circle class="st0" cx="610.2" cy="395.9" r="43.1"/>
<rect x="616.7" y="429.7" class="st0" width="13.1" height="23.4"/>
<rect x="590.6" y="429.7" class="st0" width="13.1" height="23.4"/>
<ellipse class="st0" cx="618.9" cy="453.4" rx="10.9" ry="4.1"/>
<ellipse class="st0" cx="592.8" cy="452.8" rx="10.9" ry="4.1"/>
<path class="st3" d="M625.3,372.9c-13.6-11.2-21.1-21.5-11-33.8s29.4-13.2,43-2s16.3,30.3,6.2,42.6S638.9,384.1,625.3,372.9z"/>
<circle class="st1" cx="595.3" cy="373.5" r="14.7"/>
<circle class="st2" cx="590.1" cy="369.9" r="4.9"/>
<path class="st1" d="M573.1,385.6c-3,3-5.1,12.6-0.9,16.8s16.5-0.3,19.5-3.2s-4.5-3.4-8.7-7.5S576,382.7,573.1,385.6z"/>
<ellipse transform="matrix(0.9341 -0.357 0.357 0.9341 -112.3003 258.2409)" class="st0" cx="643.4" cy="433.3" rx="6.8" ry="21.5"/>
</svg>
